<?xml version="1.0" encoding="iso-8859-1"?>
<!-- Generator: Adobe Illustrator 16.0.0, SVG Export Plug-In . SVG Version: 6.00 Build 0)  -->
<!DOCTYPE svg PUBLIC "-//W3C//DTD SVG 1.1//EN" "http://www.w3.org/Graphics/SVG/1.1/DTD/svg11.dtd">
<svg version="1.1" id="Capa_1" xmlns="http://www.w3.org/2000/svg" xmlns:xlink="http://www.w3.org/1999/xlink" x="0px" y="0px"
	 width="45.869px" height="45.869px" viewBox="0 0 45.869 45.869" style="enable-background:new 0 0 45.869 45.869;"
	 xml:space="preserve">
<g>
	<g>
		<path d="M39.802,28.837c-0.348-0.349-0.913-0.354-1.262-0.003l-5.804,5.798c-0.254,0.256-0.332,0.672-0.191,1.008
			c0.139,0.332,0.462,0.584,0.825,0.584h2.845v7.223c0,1.186,0.87,2.212,2.057,2.212h1.804c1.187,0,2.173-1.026,2.173-2.212v-7.223
			h2.729c0.361,0,0.687-0.25,0.825-0.584c0.138-0.334,0.062-0.734-0.194-0.99L39.802,28.837z"/>
		<circle cx="26.578" cy="3.854" r="3.644"/>
		<path d="M38.057,16.733h3.822c2.202,0,3.988-1.742,3.988-3.944c0-2.203-1.786-3.945-3.988-3.945h-3.822
			c-4.131,0-6.466,1.78-7.709,3.26l-0.166,0.238v-1.2c0-1.22-1.059-2.144-2.279-2.144h-2.649c-1.219,0-2.187,0.923-2.187,2.144
			v9.501L9.502,36.563c-0.699,0.832-1.431,1.207-1.662,1.207H3.989C1.786,37.771,0,39.513,0,41.716c0,2.202,1.786,3.943,3.989,3.943
			H7.84c2.784,0,5.612-1.461,7.744-4l20.822-24.463C36.729,16.811,37.579,16.733,38.057,16.733z"/>
	</g>
</g>
<g>
</g>
<g>
</g>
<g>
</g>
<g>
</g>
<g>
</g>
<g>
</g>
<g>
</g>
<g>
</g>
<g>
</g>
<g>
</g>
<g>
</g>
<g>
</g>
<g>
</g>
<g>
</g>
<g>
</g>
</svg>
