<svg height="512pt" viewBox="-31 0 512 512" width="512pt" xmlns="http://www.w3.org/2000/svg"><path d="m397.382812 0h-344.765624c-29.011719 0-52.617188 23.605469-52.617188 52.617188v406.765624c0 29.011719 23.605469 52.617188 52.617188 52.617188h344.765624c29.011719 0 52.617188-23.605469 52.617188-52.617188v-406.765624c0-29.011719-23.605469-52.617188-52.617188-52.617188zm-277.382812 482v-318.386719c0-11.917969 9.695312-21.613281 21.613281-21.613281h68.386719v340zm120 0v-340h68.386719c11.917969 0 21.613281 9.695312 21.613281 21.613281v318.386719zm180-22.617188c0 12.472657-10.144531 22.617188-22.617188 22.617188h-37.382812v-318.386719c0-28.460937-23.152344-51.613281-51.613281-51.613281h-166.773438c-28.460937 0-51.613281 23.152344-51.613281 51.613281v318.386719h-37.382812c-12.472657 0-22.617188-10.144531-22.617188-22.617188v-406.765624c0-12.472657 10.144531-22.617188 22.617188-22.617188h344.765624c12.472657 0 22.617188 10.144531 22.617188 22.617188zm0 0"/><path d="m161.066406 56.679688h-56.066406c-8.285156 0-15 6.71875-15 15 0 8.285156 6.714844 15 15 15h56.066406c8.285156 0 15-6.714844 15-15 0-8.28125-6.714844-15-15-15zm0 0"/><path d="m360.003906 71.679688c0 8.289062-6.71875 15.007812-15.003906 15.007812s-15.003906-6.71875-15.003906-15.007812c0-8.285157 6.71875-15.003907 15.003906-15.003907s15.003906 6.71875 15.003906 15.003907zm0 0"/></svg>